<svg viewBox="0 0 100 100" fill="none" xmlns="http://www.w3.org/2000/svg">
  <defs>
    <linearGradient id="topRed" x1="50" y1="5" x2="50" y2="48" gradientUnits="userSpaceOnUse">
      <stop offset="0%" stop-color="#FF4B4B"/>
      <stop offset="100%" stop-color="#D12B2B"/>
    </linearGradient>

    <linearGradient id="bottomWhite" x1="50" y1="52" x2="50" y2="95" gradientUnits="userSpaceOnUse">
      <stop offset="0%" stop-color="#F0F0F0"/>
      <stop offset="100%" stop-color="#BDBDBD"/>
    </linearGradient>

    <radialGradient id="btnGradient" cx="50" cy="50" r="12" fx="50" fy="50" gradientUnits="userSpaceOnUse">
      <stop offset="70%" stop-color="white"/>
      <stop offset="100%" stop-color="#E0E0E0"/>
    </radialGradient>
  </defs>

  <circle cx="50" cy="50" r="48" stroke="#1A1A1A" stroke-width="0.5" fill="#1A1A1A"/>

  <path d="M95 50C95 25.1472 74.8528 5 50 5C25.1472 5 5 25.1472 5 50H95Z" fill="url(#topRed)"/>

  <path d="M5 50C5 74.8528 25.1472 95 50 95C74.8528 95 95 74.8528 95 50H5Z" fill="url(#bottomWhite)"/>

  <rect x="5" y="47" width="90" height="6" fill="#1A1A1A"/>

  <circle cx="50" cy="50" r="15" fill="#1A1A1A"/>

  <circle cx="50" cy="50" r="9" fill="url(#btnGradient)" stroke="#888" stroke-width="0.5"/>

  <path d="M30 20C40 12 60 12 70 20" stroke="white" stroke-width="2" stroke-linecap="round" opacity="0.3"/>
</svg>
